<?xml version="1.0" encoding="utf-8"?>
<!-- Generator: Adobe Illustrator 27.5.0, SVG Export Plug-In . SVG Version: 6.00 Build 0)  -->
<svg version="1.1" xmlns="http://www.w3.org/2000/svg" xmlns:xlink="http://www.w3.org/1999/xlink" x="0px" y="0px"
	 viewBox="0 0 500 500" style="enable-background:new 0 0 500 500;" xml:space="preserve">
<g id="Background_Complete">
	<g>
		<rect y="382.398" style="fill:#EBEBEB;" width="500" height="0.25"/>
		<rect x="416.779" y="398.494" style="fill:#EBEBEB;" width="33.122" height="0.25"/>
		<rect x="292.749" y="398.619" style="fill:#EBEBEB;" width="8.693" height="0.25"/>
		<rect x="354.333" y="389.208" style="fill:#EBEBEB;" width="61.445" height="0.25"/>
		<rect x="212.454" y="395.111" style="fill:#EBEBEB;" width="12.693" height="0.25"/>
		<rect x="166.717" y="395.111" style="fill:#EBEBEB;" width="36.833" height="0.25"/>
		<rect x="52.459" y="390.888" style="fill:#EBEBEB;" width="25.43" height="0.25"/>
		<rect x="83.889" y="390.888" style="fill:#EBEBEB;" width="74.889" height="0.25"/>
		<path style="fill:#EBEBEB;" d="M237.014,337.8H43.915c-3.147,0-5.708-2.561-5.708-5.708V60.66c0-3.147,2.561-5.708,5.708-5.708
			h193.099c3.146,0,5.707,2.561,5.707,5.708v271.432C242.721,335.239,240.16,337.8,237.014,337.8z M43.915,55.203
			c-3.01,0-5.458,2.448-5.458,5.458v271.432c0,3.01,2.448,5.458,5.458,5.458h193.099c3.009,0,5.457-2.448,5.457-5.458V60.66
			c0-3.009-2.448-5.458-5.457-5.458H43.915z"/>
		<path style="fill:#EBEBEB;" d="M453.31,337.8H260.212c-3.147,0-5.707-2.561-5.707-5.708V60.66c0-3.147,2.561-5.708,5.707-5.708
			H453.31c3.148,0,5.708,2.561,5.708,5.708v271.432C459.019,335.239,456.458,337.8,453.31,337.8z M260.212,55.203
			c-3.009,0-5.457,2.448-5.457,5.458v271.432c0,3.01,2.448,5.458,5.457,5.458H453.31c3.01,0,5.458-2.448,5.458-5.458V60.66
			c0-3.009-2.448-5.458-5.458-5.458H260.212z"/>
	</g>
	<g>
		<g>
			<g>
				<g>
					
						<rect x="72.14" y="85.439" transform="matrix(-1 -1.224647e-16 1.224647e-16 -1 279.9784 360.6611)" style="fill:#E6E6E6;" width="135.699" height="189.783"/>
					
						<rect x="69.124" y="85.439" transform="matrix(-1 -1.224647e-16 1.224647e-16 -1 273.9472 360.6611)" style="fill:#F5F5F5;" width="135.699" height="189.783"/>
					
						<rect x="48.162" y="117.894" transform="matrix(-1.836970e-16 1 -1 -1.836970e-16 317.3043 43.3568)" style="fill:#FFFFFF;" width="177.623" height="124.873"/>
					
						<rect x="-13.134" y="179.191" transform="matrix(-1.836970e-16 1 -1 -1.836970e-16 256.0075 104.6536)" style="fill:#E6E6E6;" width="177.623" height="2.28"/>
					
						<rect x="71.363" y="151.048" transform="matrix(-1 -1.224647e-16 1.224647e-16 -1 273.9472 310.2577)" style="fill:#F5F5F5;" width="131.221" height="8.163"/>
				</g>
				<g>
					<path style="fill:#E6E6E6;" d="M63.223,75.375h150.516c0.458,0,0.833,0.375,0.833,0.833l0,0c0,0.458-0.375,0.833-0.833,0.833
						H63.223c-0.458,0-0.833-0.375-0.833-0.833l0,0C62.389,75.75,62.764,75.375,63.223,75.375z"/>
					<path style="fill:#E6E6E6;" d="M58.223,76.208c0,2.301,1.865,4.167,4.167,4.167c2.301,0,4.167-1.866,4.167-4.167
						c0-2.301-1.866-4.167-4.167-4.167C60.088,72.042,58.223,73.907,58.223,76.208z"/>
					<path style="fill:#E6E6E6;" d="M206.714,80.875L206.714,80.875c0.619,0,1.125-0.506,1.125-1.125v-2.417
						c0-0.619-0.506-1.125-1.125-1.125l0,0c-0.619,0-1.125,0.506-1.125,1.125v2.417C205.589,80.369,206.095,80.875,206.714,80.875z"
						/>
					<path style="fill:#E6E6E6;" d="M75.79,80.875L75.79,80.875c0.619,0,1.125-0.506,1.125-1.125v-2.417
						c0-0.619-0.506-1.125-1.125-1.125l0,0c-0.619,0-1.125,0.506-1.125,1.125v2.417C74.665,80.369,75.172,80.875,75.79,80.875z"/>
				</g>
			</g>
			<path style="opacity:0.5;fill:#E0E0E0;" d="M84.844,230.333h96.386c11.794,0,21.355-9.561,21.355-21.355V76.208H63.489v132.771
				C63.489,220.773,73.05,230.333,84.844,230.333z"/>
			<path style="fill:#E6E6E6;" d="M189.146,76.208c0,2.301,1.866,4.167,4.167,4.167c2.301,0,4.167-1.866,4.167-4.167
				c0-2.301-1.865-4.167-4.167-4.167C191.012,72.042,189.146,73.907,189.146,76.208z"/>
		</g>
		<g>
			<rect x="295.293" y="86.763" style="fill:#F0F0F0;" width="116.076" height="116.389"/>
			
				<rect x="411.369" y="86.763" transform="matrix(-1 -1.224647e-16 1.224647e-16 -1 824.7422 289.9149)" style="fill:#E0E0E0;" width="2.004" height="116.389"/>
			<path style="fill:#FFFFFF;" d="M353.331,195.801L353.331,195.801c-26.394,0-47.79-21.396-47.79-47.79v-6.106
				c0-26.394,21.396-47.79,47.79-47.79h0c26.394,0,47.79,21.396,47.79,47.79v6.106C401.121,174.404,379.725,195.801,353.331,195.801
				z"/>
			<path style="fill:#F5F5F5;" d="M371.547,166.676h-36.431c-1.214,0-2.199-0.984-2.199-2.199v-39.039
				c0-1.214,0.984-2.199,2.199-2.199h36.431c1.214,0,2.199,0.984,2.199,2.199v39.039
				C373.745,165.691,372.761,166.676,371.547,166.676z"/>
		</g>
		<g>
			<g>
				
					<rect x="184.867" y="319.125" transform="matrix(-1 -1.224647e-16 1.224647e-16 -1 396.5191 697.6355)" style="fill:#F0F0F0;" width="26.785" height="59.386"/>
				
					<rect x="74.419" y="378.511" transform="matrix(-1 -1.224647e-16 1.224647e-16 -1 280.9277 760.784)" style="fill:#F0F0F0;" width="132.09" height="3.763"/>
				<rect x="69.276" y="319.125" style="fill:#F5F5F5;" width="115.591" height="59.386"/>
				<path style="fill:#F0F0F0;" d="M174.337,346.411h-94.53c-0.276,0-0.5-0.224-0.5-0.5v-19.476c0-0.276,0.224-0.5,0.5-0.5h94.53
					c0.276,0,0.5,0.224,0.5,0.5v19.476C174.837,346.187,174.613,346.411,174.337,346.411z M80.306,345.411h93.53v-18.476h-93.53
					V345.411z"/>
				<path style="fill:#F0F0F0;" d="M174.337,371.701h-94.53c-0.276,0-0.5-0.224-0.5-0.5v-19.477c0-0.276,0.224-0.5,0.5-0.5h94.53
					c0.276,0,0.5,0.224,0.5,0.5v19.477C174.837,371.477,174.613,371.701,174.337,371.701z M80.306,370.701h93.53v-18.477h-93.53
					V370.701z"/>
				<path style="fill:#FFFFFF;" d="M115.027,337.508h24.089c0.649,0,1.18-0.531,1.18-1.18v-0.311c0-0.649-0.531-1.18-1.18-1.18
					h-24.089c-0.649,0-1.18,0.531-1.18,1.18v0.311C113.847,336.977,114.378,337.508,115.027,337.508z"/>
				<path style="fill:#FFFFFF;" d="M115.027,362.798h24.089c0.649,0,1.18-0.531,1.18-1.18v-0.311c0-0.649-0.531-1.18-1.18-1.18
					h-24.089c-0.649,0-1.18,0.531-1.18,1.18v0.311C113.847,362.267,114.378,362.798,115.027,362.798z"/>
			</g>
			<path style="fill:#F5F5F5;" d="M121.152,309.125c0,0-0.322,9.999-12.665,9.999c-12.343,0-12.665-9.999-12.665-9.999H121.152z"/>
			<path style="fill:#F5F5F5;" d="M150.026,309.125c0,0-0.322,9.999-12.665,9.999c-12.343,0-12.665-9.999-12.665-9.999H150.026z"/>
			<path style="fill:#F5F5F5;" d="M178.899,309.125c0,0-0.322,9.999-12.665,9.999c-12.343,0-12.665-9.999-12.665-9.999H178.899z"/>
		</g>
		<g>
			
				<rect x="423.679" y="243.785" transform="matrix(-1 -1.224647e-16 1.224647e-16 -1 867.5681 620.077)" style="fill:#F0F0F0;" width="20.211" height="132.508"/>
			
				<rect x="271.892" y="376.293" transform="matrix(-1 -1.224647e-16 1.224647e-16 -1 710.4484 758.6756)" style="fill:#F0F0F0;" width="166.665" height="6.091"/>
			<rect x="266.559" y="243.785" style="fill:#F5F5F5;" width="157.12" height="132.508"/>
			<rect x="277.478" y="291.675" style="fill:#F0F0F0;" width="135.282" height="31.525"/>
			<rect x="277.478" y="332.936" style="fill:#F0F0F0;" width="135.282" height="31.525"/>
			<path style="fill:#F5F5F5;" d="M306.098,293.836h78.042c1.125,0,2.046-0.921,2.046-2.046v-0.231c0-1.125-0.921-2.046-2.046-2.046
				h-78.042c-1.125,0-2.046,0.921-2.046,2.046v0.231C304.052,292.916,304.973,293.836,306.098,293.836z"/>
			<path style="fill:#F5F5F5;" d="M306.098,335.097h78.042c1.125,0,2.046-0.921,2.046-2.046v-0.231c0-1.125-0.921-2.046-2.046-2.046
				h-78.042c-1.125,0-2.046,0.921-2.046,2.046v0.231C304.052,334.177,304.973,335.097,306.098,335.097z"/>
			<rect x="277.478" y="250.414" style="fill:#F0F0F0;" width="135.282" height="31.525"/>
			<path style="fill:#F5F5F5;" d="M306.098,252.575h78.042c1.125,0,2.046-0.921,2.046-2.046v-0.231c0-1.125-0.921-2.046-2.046-2.046
				h-78.042c-1.125,0-2.046,0.921-2.046,2.046v0.231C304.052,251.655,304.973,252.575,306.098,252.575z"/>
		</g>
	</g>
</g>
<g id="Background_Simple" style="display:none;">
	<g style="display:inline;">
		<path style="fill:#407BFF;" d="M222.038,130.525c48.289-10.188,81.818-34.956,133.905-20.256
			c43.567,12.296,58.885,43.143,60.536,83.658c4.069,99.858-92.048,149.474-189.423,136.512
			C134.811,318.16,77.174,248.671,77.585,163.678c0.155-32.106,13.501-80.176,59.287-68.453
			C170.457,103.824,180.899,139.205,222.038,130.525z"/>
		<path style="opacity:0.9;fill:#FFFFFF;" d="M222.038,130.525c48.289-10.188,81.818-34.956,133.905-20.256
			c43.567,12.296,58.885,43.143,60.536,83.658c4.069,99.858-92.048,149.474-189.423,136.512
			C134.811,318.16,77.174,248.671,77.585,163.678c0.155-32.106,13.501-80.176,59.287-68.453
			C170.457,103.824,180.899,139.205,222.038,130.525z"/>
	</g>
</g>
<g id="Shadow_1_">
	<ellipse id="_x3C_Path_x3E__143_" style="fill:#F5F5F5;" cx="250" cy="416.238" rx="193.889" ry="11.323"/>
</g>
<g id="Programming">
	<g>
		
			<rect x="289.767" y="101.5" transform="matrix(0.1127 -0.9936 0.9936 0.1127 154.0895 380.8242)" style="fill:#407BFF;" width="1" height="5.275"/>
		
			<rect x="272.899" y="93.662" transform="matrix(0.1126 -0.9936 0.9936 0.1126 141.0267 362.3692)" style="fill:#407BFF;" width="1" height="17.128"/>
		<path style="fill:#407BFF;" d="M374.381,265.433l-179.914-20.398c-2.678-0.304-4.62-2.743-4.317-5.421L205.696,102.5
			c0.304-2.678,2.743-4.62,5.421-4.317l179.914,20.398c2.678,0.304,4.62,2.743,4.317,5.421l-15.546,137.114
			C379.498,263.794,377.059,265.737,374.381,265.433z"/>
		<path style="opacity:0.7;fill:#263238;" d="M192.783,237.975l15.112-133.289c0.223-1.968,2-3.383,3.968-3.16l177.693,20.146
			c1.968,0.223,3.383,2,3.16,3.968L377.604,258.93c-0.223,1.968-2,3.383-3.968,3.16l-177.693-20.146
			C193.974,241.72,192.559,239.943,192.783,237.975z"/>
		<g>
			
				<rect x="287.674" y="150.269" transform="matrix(0.9936 0.1127 -0.1127 0.9936 19.2089 -35.6847)" style="fill:#407BFF;" width="75.362" height="3.712"/>
			
				<rect x="294.68" y="157.273" transform="matrix(0.9936 0.1127 -0.1127 0.9936 20.0567 -36.6813)" style="fill:#407BFF;" width="79.835" height="3.712"/>
			
				<rect x="294.057" y="162.382" transform="matrix(0.9936 0.1127 -0.1127 0.9936 20.5846 -35.8074)" style="fill:#407BFF;" width="66.149" height="3.712"/>
			
				<rect x="293.412" y="167.874" transform="matrix(0.9936 0.1127 -0.1127 0.9936 21.1777 -35.3119)" style="fill:#407BFF;" width="59.253" height="3.712"/>
			
				<rect x="284.673" y="175.992" transform="matrix(0.9936 0.1127 -0.1127 0.9936 22.0034 -33.6957)" style="fill:#407BFF;" width="48.965" height="3.712"/>
			
				<rect x="290.348" y="194.707" transform="matrix(0.9936 0.1127 -0.1127 0.9936 24.1598 -34.4193)" style="fill:#407BFF;" width="52.567" height="3.712"/>
			
				<rect x="291.044" y="188.319" transform="matrix(0.9936 0.1127 -0.1127 0.9936 23.4155 -34.0301)" style="fill:#407BFF;" width="43.555" height="3.712"/>
			
				<rect x="291.696" y="182.688" transform="matrix(0.9936 0.1127 -0.1127 0.9936 22.7994 -34.3885)" style="fill:#407BFF;" width="47.97" height="3.712"/>
			
				<rect x="279.588" y="220.843" transform="matrix(0.9936 0.1127 -0.1127 0.9936 27.0237 -32.8373)" style="fill:#407BFF;" width="48.965" height="3.712"/>
			
				<rect x="285.263" y="239.559" transform="matrix(0.9936 0.1127 -0.1127 0.9936 29.1801 -33.5608)" style="fill:#407BFF;" width="52.567" height="3.712"/>
			
				<rect x="285.958" y="233.171" transform="matrix(0.9936 0.1127 -0.1127 0.9936 28.4357 -33.1717)" style="fill:#407BFF;" width="43.555" height="3.712"/>
			
				<rect x="286.611" y="227.539" transform="matrix(0.9936 0.1127 -0.1127 0.9936 27.8199 -33.5302)" style="fill:#407BFF;" width="47.97" height="3.712"/>
			
				<rect x="215.896" y="112.327" transform="matrix(0.9936 0.1127 -0.1127 0.9936 14.364 -25.8342)" style="fill:#FFFFFF;" width="39.758" height="3.712"/>
			
				<rect x="220.128" y="130.841" transform="matrix(0.9936 0.1127 -0.1127 0.9936 16.4859 -26.3578)" style="fill:#FFFFFF;" width="42.683" height="3.712"/>
			
				<rect x="220.818" y="124.548" transform="matrix(0.9936 0.1127 -0.1127 0.9936 15.7582 -26.0635)" style="fill:#FFFFFF;" width="35.366" height="3.712"/>
			
				<rect x="221.473" y="118.869" transform="matrix(0.9936 0.1127 -0.1127 0.9936 15.1343 -26.3758)" style="fill:#FFFFFF;" width="38.95" height="3.712"/>
			
				<rect x="288.348" y="212.349" transform="matrix(0.9936 0.1127 -0.1127 0.9936 26.1344 -34.0816)" style="fill:#407BFF;" width="52.567" height="3.712"/>
			
				<rect x="289.043" y="205.961" transform="matrix(0.9936 0.1127 -0.1127 0.9936 25.3901 -33.6925)" style="fill:#407BFF;" width="43.555" height="3.712"/>
			
				<rect x="289.696" y="200.329" transform="matrix(0.9936 0.1127 -0.1127 0.9936 24.7741 -34.0509)" style="fill:#407BFF;" width="47.97" height="3.712"/>
		</g>
	</g>
</g>
<g id="Character_1_">
	<g>
		<polygon style="fill:#FFC3BD;" points="230.462,412.247 223.851,412.101 222.931,396.765 229.542,396.911 		"/>
		<path style="fill:#263238;" d="M223.612,411.33l7.219,0.159c0.27,0.006,0.5,0.199,0.553,0.464l1.176,5.905
			c0.122,0.612-0.353,1.179-0.977,1.155c-2.603-0.102-6.363-0.337-9.636-0.409c-3.827-0.084-4.515,0.582-8.98,0.117
			c-2.7-0.281-3.165-3.088-2.01-3.218c5.262-0.59,6.521-1.036,11.051-3.693C222.5,411.521,223.041,411.318,223.612,411.33z"/>
		<polygon style="opacity:0.2;" points="222.933,396.769 223.406,404.674 230.019,404.82 229.546,396.915 		"/>
		<path style="fill:#FFC3BD;" d="M220.01,194.492c-2.203,4.313-4.523,8.48-6.982,12.635c-2.491,4.144-5.017,8.226-8.031,12.302
			c-0.377,0.51-0.799,1.034-1.196,1.548c-0.176,0.238-0.461,0.559-0.724,0.857c-0.266,0.298-0.523,0.603-0.819,0.875
			c-1.118,1.149-2.434,2.091-3.786,2.866c-2.721,1.575-5.661,2.301-8.439,2.577c-2.797,0.266-5.484,0.067-8.058-0.389
			c-1.29-0.217-2.546-0.546-3.783-0.902c-1.258-0.37-2.404-0.759-3.71-1.327l1.593-5.054c0.972,0.11,2.148,0.234,3.226,0.297
			c1.1,0.065,2.199,0.058,3.276,0.046c2.154-0.058,4.256-0.273,6.152-0.775c1.899-0.481,3.581-1.229,4.877-2.21
			c0.652-0.492,1.22-1.035,1.704-1.644c0.134-0.139,0.237-0.309,0.352-0.466c0.114-0.162,0.218-0.29,0.378-0.542l0.879-1.348
			c2.35-3.769,4.623-7.899,6.87-11.987l6.753-12.34L220.01,194.492z"/>
		<path style="fill:#FFFFFF;" d="M225.935,188c1.018,6.032-12.714,24.091-12.714,24.091l-10.054-12.084c0,0,4.718-8.193,9.8-13.888
			C218.184,180.271,224.818,181.38,225.935,188z"/>
		<path style="opacity:0.2;" d="M222.724,193.135c-3.976,0.979-10.746,5.24-14.037,13.507l4.533,5.453
			c0,0,8.126-10.681,11.406-18.361C224.177,193.178,223.557,192.926,222.724,193.135z"/>
		<path style="fill:#FFFFFF;" d="M218.844,182.326c0,0-10.545,13.445-9.85,52.238c10.73,1.94,30.391,5.493,35.613,6.437
			c1.234-5.422,1.672-27.47,11.601-52.276c0,0-5.883-2.328-11.649-3.66c-4.511-1.042-11.072-2.378-15.139-2.736
			C224.059,181.857,218.844,182.326,218.844,182.326z"/>
		<path style="opacity:0.2;" d="M248.67,203.87c-1.52,2.15-2.44,7.98-0.39,11.99c0.479-2.48,1.05-5.08,1.729-7.79L248.67,203.87z"/>
		<path style="fill:#263238;" d="M229.42,182.33c0,0-4.273,8.393,0.709,12.754c8.71-0.747,14.43-10.018,14.43-10.018L229.42,182.33z
			"/>
		<polygon style="fill:#FFC3BD;" points="164.279,217.134 164.388,222.1 168.689,225.206 170.627,218.394 		"/>
		<path style="fill:#FFC3BD;" d="M178.288,220.995l-7.661-2.601l-1.938,6.812c0,0,4.461,1.939,8.034-0.651L178.288,220.995z"/>
		<path style="fill:#FFC3BD;" d="M246.14,167.748c-1.835,4.698-4.402,13.451-1.581,17.317c0,0-3.879,4.531-12.589,5.278
			c-4.981-4.361-2.549-8.014-2.549-8.014c5.666-0.315,6.255-4.37,5.992-8.326L246.14,167.748z"/>
		<path style="fill:#407BFF;" d="M229.42,182.329"/>
		<path style="fill:#407BFF;" d="M244.558,185.065"/>
		<path style="opacity:0.2;" d="M241.766,170.301L235.417,174c0.065,0.937,0.077,1.877-0.019,2.771
			c2.819,1.446,5.118-0.07,6.356-3.123C242.17,172.622,241.851,170.838,241.766,170.301z"/>
		<path style="fill:#263238;" d="M232.082,162.353c0.403,2.973,9.656-1.897,11.218-2.92c1.562-1.023-0.231-4.604-3.736-7.48
			C236.06,149.076,231.132,155.339,232.082,162.353z"/>
		<path style="fill:#FFC3BD;" d="M251.061,163.725c-2.826,6.091-4.171,9.8-8.577,11.77c-6.628,2.963-13.213-2.911-12.264-9.724
			c0.855-6.133,5.333-15.064,12.415-15.156C249.611,150.524,253.887,157.634,251.061,163.725z"/>
		<path style="fill:#263238;" d="M248.556,169.434c-2.967,0.443-0.875-9.802-0.329-11.587c0.547-1.785,5.314-3.411,7.982,0.254
			C259.462,162.569,255.557,168.389,248.556,169.434z"/>
		<path style="fill:#263238;" d="M247.661,148.577c-2.688-0.542-1.92-3.385,0.054-3.238c-1.586-1.927-11.013-3.688-11.504,2.55
			c-0.491,6.238,11.62,9.699,14.899,10.137l4.917,1.37C262.595,156.107,255.283,150.114,247.661,148.577z"/>
		<path style="fill:#FFC3BD;" d="M251.388,171.099c-1.313,1.247-3.079,1.771-4.566,1.709c-2.236-0.094-2.665-2.26-1.466-4.01
			c1.079-1.575,3.543-3.424,5.509-2.475C252.803,167.257,252.889,169.673,251.388,171.099z"/>
		<polygon style="fill:#FFC3BD;" points="210.335,399.85 203.848,401.128 200.672,386.147 207.159,384.869 		"/>
		<path style="fill:#263238;" d="M203.443,400.428l7.085-1.396c0.265-0.052,0.531,0.087,0.64,0.334l2.418,5.514
			c0.251,0.572-0.092,1.228-0.706,1.338c-2.564,0.46-6.287,1.038-9.499,1.671c-3.756,0.74-4.97,0.819-9.374,1.687
			c-2.663,0.525-3.933-2.022-2.866-2.486c4.856-2.11,6.987-2.281,10.84-5.849C202.398,400.853,202.883,400.538,203.443,400.428z"/>
		<polygon style="opacity:0.2;" points="200.674,386.151 202.31,393.873 208.8,392.595 207.164,384.872 		"/>
		<path style="fill:#407BFF;" d="M200.962,401.949c-0.484,0.177-0.966,0.261-1.342,0.125c-0.298-0.108-0.501-0.338-0.603-0.682
			c-0.076-0.256,0.013-0.423,0.101-0.52c0.564-0.615,3.081-0.11,3.366-0.051c0.063,0.014,0.112,0.064,0.125,0.128
			c0.012,0.062-0.015,0.127-0.069,0.163C202.139,401.381,201.549,401.734,200.962,401.949z M199.536,400.981
			c-0.079,0.029-0.14,0.065-0.181,0.109c-0.033,0.036-0.066,0.092-0.03,0.211c0.073,0.245,0.204,0.4,0.404,0.472
			c0.454,0.165,1.298-0.1,2.297-0.712C201.157,400.908,200.023,400.802,199.536,400.981z"/>
		<path style="fill:#407BFF;" d="M202.507,401.129c-0.025,0.009-0.051,0.012-0.078,0.009c-0.789-0.116-2.569-1.043-2.695-1.801
			c-0.023-0.137-0.01-0.394,0.335-0.569c0.225-0.116,0.462-0.128,0.711-0.042c0.959,0.333,1.783,2.111,1.817,2.186
			c0.025,0.053,0.018,0.116-0.018,0.163C202.561,401.1,202.536,401.119,202.507,401.129z M200.281,399.024
			c-0.022,0.008-0.044,0.019-0.067,0.03c-0.187,0.095-0.171,0.192-0.164,0.232c0.073,0.448,1.269,1.203,2.104,1.46
			c-0.271-0.509-0.865-1.503-1.48-1.716C200.535,398.98,200.405,398.978,200.281,399.024z"/>
		<path style="fill:#407BFF;" d="M208.995,234.564c0,0-15.814,60.174-20.38,80.309c-4.749,20.944,11.224,77.556,11.224,77.556
			l10.554-2.079c0,0-4.432-57.716-2.924-66.884c6.055-22.173,24.936-84.67,24.936-84.67L208.995,234.564z"/>
		<path style="opacity:0.2;" d="M211.005,284.441c-0.944,10.384-0.1,20.589,0.391,25.16c4.526-15.728,10.809-36.827,15.326-51.898
			C222.159,259.668,212.688,265.922,211.005,284.441z"/>
		<path style="fill:#407BFF;" d="M221.298,236.788c0,0-8.274,61.327-7.572,81.14c0.769,21.696,5.902,84.769,5.902,84.769
			l12.39,0.273c0,0-0.187-59.643,0.957-80.78c1.242-22.941,11.303-81.248,11.303-81.248L221.298,236.788z"/>
		<polygon style="fill:#263238;" points="232.826,403.254 219.478,402.96 218.426,397.898 233.208,397.811 		"/>
		<polygon style="fill:#263238;" points="212.48,390.211 199.381,392.792 197.265,388.074 211.782,385.475 		"/>
		<path style="fill:#263238;" d="M241.295,161.915c-0.199,0.508-0.63,0.815-0.962,0.685c-0.332-0.13-0.44-0.647-0.241-1.156
			c0.199-0.508,0.629-0.815,0.962-0.685C241.386,160.889,241.494,161.406,241.295,161.915z"/>
		<path style="fill:#263238;" d="M235.551,159.666c-0.199,0.508-0.629,0.815-0.962,0.685c-0.332-0.13-0.44-0.647-0.241-1.156
			c0.199-0.508,0.63-0.815,0.962-0.685C235.642,158.641,235.75,159.158,235.551,159.666z"/>
		<path style="fill:#ED847E;" d="M236.894,160.483c0,0-2.303,2.48-4.129,3.396c0.571,1.191,2.249,1.406,2.249,1.406L236.894,160.483
			z"/>
		<path style="fill:#263238;" d="M234.921,167.753c-0.081-0.035-0.118-0.13-0.082-0.211c0.035-0.081,0.13-0.118,0.211-0.082
			c2.193,0.963,3.89-0.119,3.907-0.13c0.075-0.048,0.175-0.027,0.221,0.047c0.048,0.074,0.028,0.173-0.047,0.221
			C239.057,167.646,237.272,168.785,234.921,167.753z"/>
		<path style="fill:#263238;" d="M244.483,160.761c-0.085-0.047-0.148-0.131-0.163-0.234c-0.21-1.414-1.277-1.92-1.288-1.924
			c-0.154-0.063-0.232-0.264-0.158-0.425c0.074-0.161,0.264-0.231,0.425-0.158c0.057,0.026,1.395,0.657,1.655,2.412
			c0.026,0.176-0.095,0.338-0.27,0.364C244.613,160.807,244.543,160.793,244.483,160.761z"/>
		<path style="fill:#263238;" d="M234.097,156.241c-0.04-0.025-0.075-0.06-0.101-0.103c-0.093-0.15-0.046-0.348,0.105-0.441
			c1.51-0.929,2.854-0.312,2.911-0.285c0.159,0.068,0.229,0.266,0.153,0.427c-0.076,0.16-0.265,0.228-0.425,0.154l0,0
			c-0.044-0.021-1.098-0.49-2.303,0.251C234.329,156.31,234.197,156.305,234.097,156.241z"/>
		<path style="fill:#407BFF;" d="M251.147,186.568l-1.655-0.45c-0.166-0.045-0.34,0.043-0.401,0.204
			c-9.22,24.28-11.415,51.428-11.415,51.428l1.855,0.335c3.486-27.952,10.797-48.276,11.843-51.087
			C251.442,186.814,251.336,186.619,251.147,186.568z"/>
		<g style="opacity:0.99;">
			<path style="fill:#263238;" d="M239.801,238.133c0.06-0.329-0.162-0.648-0.491-0.707l-1.284-0.232
				c-0.329-0.06-0.648,0.161-0.707,0.491c-0.051,0.279,0.106,0.54,0.354,0.653l-0.288,1.591c-0.078,0.431,0.211,0.847,0.642,0.925
				c0.431,0.078,0.847-0.211,0.925-0.642l0.288-1.591C239.512,238.602,239.751,238.413,239.801,238.133z"/>
		</g>
		<g>
			<path style="fill:#407BFF;" d="M222.892,181.808l-1.721,0.014c-0.143,0.001-0.27,0.094-0.315,0.23
				c-8.071,24.5-8.877,51.052-8.877,51.052l1.855,0.335c2.176-27.862,8.361-48.028,9.378-51.199
				C223.28,182.026,223.117,181.806,222.892,181.808z"/>
			<path style="opacity:0.99;fill:#263238;" d="M214.103,233.488c0.044-0.332-0.189-0.653-0.518-0.712l-1.285-0.232
				c-0.329-0.059-0.635,0.163-0.679,0.496c-0.038,0.282,0.13,0.545,0.38,0.657l-0.214,1.604c-0.057,0.434,0.248,0.854,0.678,0.932
				c0.431,0.078,0.831-0.214,0.889-0.649l0.214-1.604C213.838,233.962,214.066,233.77,214.103,233.488z"/>
		</g>
		<path style="fill:#407BFF;" d="M220.862,412.283c-0.51,0.069-0.999,0.047-1.337-0.166c-0.268-0.17-0.417-0.438-0.442-0.795
			c-0.02-0.267,0.104-0.411,0.211-0.486c0.682-0.479,3.032,0.554,3.298,0.674c0.059,0.027,0.096,0.087,0.094,0.152
			c-0.002,0.063-0.042,0.121-0.102,0.144C222.133,411.98,221.482,412.199,220.862,412.283z M219.678,411.031
			c-0.083,0.011-0.151,0.033-0.201,0.068c-0.04,0.028-0.084,0.076-0.075,0.2c0.018,0.255,0.114,0.434,0.293,0.548
			c0.408,0.259,1.289,0.182,2.396-0.202C221.277,411.308,220.192,410.961,219.678,411.031z"/>
		<path style="fill:#407BFF;" d="M222.548,411.815c-0.026,0.004-0.053,0.001-0.078-0.008c-0.745-0.283-2.285-1.57-2.245-2.338
			c0.007-0.139,0.075-0.387,0.449-0.484c0.245-0.065,0.479-0.026,0.704,0.112c0.865,0.531,1.288,2.445,1.305,2.525
			c0.013,0.058-0.008,0.117-0.052,0.155C222.607,411.798,222.578,411.81,222.548,411.815z M220.826,409.28
			c-0.024,0.003-0.047,0.009-0.071,0.015c-0.203,0.053-0.208,0.151-0.21,0.191c-0.024,0.453,0.981,1.448,1.742,1.878
			c-0.155-0.555-0.522-1.654-1.076-1.994C221.083,409.292,220.957,409.262,220.826,409.28z"/>
		<polygon style="fill:#FFC3BD;" points="225.463,257.8 231.051,261.751 235.241,258.657 229.879,252.13 		"/>
		<path style="fill:#FFC3BD;" d="M237.789,250.942l-7.91,1.188l5.362,6.527c0,0,5.487-1.333,5.191-5.736L237.789,250.942z"/>
		<path style="fill:#FFC3BD;" d="M261.088,199.078c0.301,5.227,0.466,10.424,0.494,15.658c0.025,2.615,0.008,5.233-0.044,7.869
			c-0.022,1.319-0.051,2.636-0.116,3.974l-0.098,2.016l-0.058,1.018c-0.038,0.465-0.097,1.002-0.161,1.496
			c-0.325,1.946-0.979,3.546-1.709,4.98c-0.734,1.432-1.557,2.706-2.415,3.903c-1.74,2.361-3.642,4.41-5.612,6.323
			c-3.969,3.814-8.186,7.025-12.771,9.943l-3.234-4.198c1.738-1.762,3.56-3.594,5.234-5.468c1.706-1.858,3.35-3.749,4.883-5.671
			c1.528-1.92,2.942-3.885,4.088-5.842c0.564-0.974,1.055-1.946,1.415-2.868c0.357-0.918,0.586-1.791,0.623-2.422
			c-0.011-0.153-0.007-0.262,0-0.444l-0.021-0.929l-0.059-1.877l-0.154-3.814l-0.363-7.703c-0.253-5.145-0.467-10.324-0.608-15.471
			L261.088,199.078z"/>
		<path style="fill:#FFFFFF;" d="M256.208,188.726c8.55,3.188,8.485,26.055,8.485,26.055l-14.471,2.664
			c0,0-3.499-10.396-1.771-18.577C250.1,191.061,249.706,186.302,256.208,188.726z"/>
	</g>
</g>
<g id="JS">
	<g>
		<g>
			<path style="fill:#407BFF;" d="M145.835,218.146l-38.758-14.514l-6.81-40.823l31.949-26.309l38.758,14.514l6.81,40.823
				L145.835,218.146z M108.713,202.285l36.774,13.77l30.313-24.962l-6.461-38.732l-36.774-13.771l-30.313,24.962L108.713,202.285z"
				/>
			<path style="fill:#407BFF;" d="M138.516,136.524c0.564,3.384-1.721,6.584-5.104,7.148c-3.384,0.564-6.584-1.721-7.149-5.105
				c-0.564-3.384,1.721-6.584,5.104-7.148C134.751,130.855,137.952,133.14,138.516,136.524z"/>
			<path style="fill:#407BFF;" d="M151.788,216.079c0.564,3.384-1.721,6.584-5.104,7.148c-3.384,0.564-6.584-1.721-7.148-5.105
				c-0.565-3.384,1.721-6.584,5.104-7.148C148.023,210.41,151.223,212.695,151.788,216.079z"/>
			<path style="fill:#407BFF;" d="M166.547,156.743c-2.792-1.993-3.439-5.873-1.445-8.664c1.993-2.792,5.872-3.439,8.664-1.445
				c2.792,1.993,3.439,5.873,1.445,8.664C173.217,158.089,169.338,158.736,166.547,156.743z"/>
			<path style="fill:#407BFF;" d="M97.638,168.167c-2.792-1.993-3.439-5.872-1.445-8.664c1.993-2.792,5.872-3.439,8.664-1.445
				c2.792,1.993,3.439,5.873,1.445,8.664C104.309,169.513,100.43,170.16,97.638,168.167z"/>
			<path style="fill:#407BFF;" d="M173.194,196.59c-2.792-1.993-3.439-5.873-1.445-8.664c1.993-2.792,5.873-3.439,8.664-1.445
				c2.792,1.994,3.439,5.873,1.445,8.664C179.865,197.936,175.986,198.583,173.194,196.59z"/>
			<path style="fill:#407BFF;" d="M104.285,208.014c-2.792-1.993-3.439-5.872-1.445-8.664c1.993-2.792,5.873-3.439,8.664-1.445
				c2.792,1.993,3.439,5.873,1.445,8.664C110.956,209.36,107.077,210.007,104.285,208.014z"/>
		</g>
		<g>
			<path style="fill:#263238;" d="M125.939,166.976l7.828-1.306l2.291,13.734c0.481,2.883,0.591,5.12,0.331,6.711
				c-0.26,1.59-1.077,3.037-2.448,4.34c-1.372,1.303-3.265,2.157-5.679,2.559c-2.552,0.426-4.587,0.411-6.104-0.045
				c-1.518-0.456-2.77-1.284-3.755-2.484c-0.986-1.2-1.711-2.766-2.175-4.697l7.297-2.263c0.197,1.113,0.433,1.925,0.707,2.434
				c0.274,0.51,0.657,0.895,1.15,1.155c0.335,0.169,0.779,0.207,1.331,0.115c0.874-0.146,1.46-0.577,1.76-1.294
				c0.3-0.717,0.321-1.845,0.065-3.384L125.939,166.976z"/>
			<path style="fill:#263238;" d="M140.434,181.944l7.354-1.706c0.362,1.18,0.843,2.046,1.443,2.595
				c0.975,0.889,2.21,1.209,3.705,0.96c1.115-0.186,1.931-0.591,2.447-1.214s0.717-1.281,0.602-1.97
				c-0.109-0.655-0.495-1.194-1.156-1.615c-0.661-0.421-2.076-0.687-4.245-0.798c-3.554-0.199-6.168-0.814-7.84-1.847
				c-1.684-1.03-2.691-2.534-3.021-4.512c-0.217-1.299-0.045-2.589,0.515-3.87c0.56-1.281,1.541-2.378,2.943-3.291
				c1.401-0.913,3.418-1.589,6.051-2.028c3.23-0.539,5.793-0.349,7.689,0.569c1.896,0.919,3.223,2.661,3.983,5.229l-7.291,1.66
				c-0.385-1.105-0.934-1.865-1.647-2.277c-0.713-0.413-1.621-0.527-2.725-0.343c-0.908,0.152-1.56,0.458-1.956,0.92
				c-0.396,0.462-0.548,0.969-0.455,1.52c0.067,0.403,0.317,0.733,0.75,0.991c0.424,0.272,1.349,0.437,2.776,0.494
				c3.537,0.166,6.107,0.503,7.71,1.009c1.603,0.507,2.833,1.262,3.692,2.264c0.859,1.003,1.403,2.194,1.633,3.574
				c0.27,1.621,0.071,3.19-0.597,4.708c-0.669,1.518-1.749,2.764-3.24,3.74c-1.492,0.975-3.461,1.667-5.91,2.076
				c-4.3,0.717-7.415,0.386-9.346-0.993C142.366,186.407,141.078,184.46,140.434,181.944z"/>
		</g>
	</g>
</g>
</svg>
